<svg xmlns="http://www.w3.org/2000/svg" width="32" height="32" viewBox="0 0 16 16" role="img" aria-label="Pixel plate">
  <rect width="16" height="16" fill="none" />
  <g shape-rendering="crispEdges">
    <rect x="0" y="4" width="1" height="6" fill="#3d2c2c" />
    <rect x="1" y="4" width="1" height="6" fill="#3d2c2c" />
    <rect x="0" y="3" width="2" height="1" fill="#3d2c2c" />
    <rect x="0" y="10" width="2" height="1" fill="#3d2c2c" />

    <rect x="2" y="2" width="12" height="1" fill="#3d2c2c" />
    <rect x="2" y="13" width="12" height="1" fill="#3d2c2c" />
    <rect x="2" y="3" width="1" height="10" fill="#3d2c2c" />
    <rect x="13" y="3" width="1" height="10" fill="#3d2c2c" />

    <rect x="3" y="3" width="10" height="10" fill="#fffdf9" />

    <rect x="5" y="5" width="6" height="1" fill="#f1d8cc" />
    <rect x="5" y="10" width="6" height="1" fill="#f1d8cc" />
    <rect x="5" y="6" width="1" height="4" fill="#f1d8cc" />
    <rect x="10" y="6" width="1" height="4" fill="#f1d8cc" />

    <rect x="4" y="4" width="1" height="1" fill="#a5b4fc" />
    <rect x="11" y="11" width="1" height="1" fill="#f9a8d4" />

    <rect x="14" y="1" width="1" height="1" fill="#fdba74" />
    <rect x="15" y="2" width="1" height="1" fill="#fdba74" />
    <rect x="14" y="3" width="1" height="1" fill="#fdba74" />
  </g>
</svg>
